<svg width="211" height="27" viewBox="0 0 211 27" fill="none" xmlns="http://www.w3.org/2000/svg">
<path d="M31.5781 19.125C31.5781 20.2188 31.3672 21.2422 30.9453 22.1953C30.5391 23.1484 29.9766 23.9844 29.2578 24.7031C28.5391 25.4062 27.6953 25.9688 26.7266 26.3906C25.7734 26.7969 24.75 27 23.6562 27H7.48438V22.1484H23.6562C24.0938 22.1484 24.5 22.0703 24.875 21.9141C25.25 21.7578 25.5703 21.5469 25.8359 21.2812C26.1172 21 26.3359 20.6797 26.4922 20.3203C26.6484 19.9453 26.7266 19.5469 26.7266 19.125C26.7266 18.6875 26.6484 18.2812 26.4922 17.9062C26.3359 17.5312 26.1172 17.2109 25.8359 16.9453C25.5703 16.6641 25.25 16.4453 24.875 16.2891C24.5 16.1328 24.0938 16.0547 23.6562 16.0547H7.48438V11.2031H19.7188C20.1875 11.1875 20.625 11.1016 21.0312 10.9453C21.4375 10.7891 21.7891 10.5859 22.0859 10.3359C22.3984 10.0703 22.6406 9.76562 22.8125 9.42188C22.9844 9.0625 23.0703 8.67969 23.0703 8.27344C23.0703 7.85156 22.9922 7.46875 22.8359 7.125C22.6797 6.76562 22.4609 6.45312 22.1797 6.1875C21.9141 5.92188 21.5938 5.71875 21.2188 5.57812C20.8594 5.42188 20.4688 5.34375 20.0469 5.34375H5.21094V27H0.3125V0.515625H20.0469C21.125 0.515625 22.1406 0.71875 23.0938 1.125C24.0625 1.53125 24.8984 2.08594 25.6016 2.78906C26.3203 3.47656 26.8828 4.29688 27.2891 5.25C27.7109 6.1875 27.9219 7.19531 27.9219 8.27344C27.9219 8.96094 27.8281 9.60938 27.6406 10.2188C27.4688 10.8281 27.2266 11.3984 26.9141 11.9297C27.6016 12.2422 28.2266 12.6484 28.7891 13.1484C29.3672 13.6328 29.8594 14.1875 30.2656 14.8125C30.6875 15.4375 31.0078 16.1172 31.2266 16.8516C31.4609 17.5703 31.5781 18.3281 31.5781 19.125ZM66.7578 27H61.9531V19.7578H43.4609V14.8594H61.9531V5.34375H49.4609C48.2891 5.34375 47.1875 5.57031 46.1562 6.02344C45.125 6.46094 44.2266 7.0625 43.4609 7.82812C42.6953 8.59375 42.0859 9.49219 41.6328 10.5234C41.1953 11.5391 40.9766 12.6328 40.9766 13.8047V27H36.125V13.8047C36.125 11.9609 36.4766 10.2344 37.1797 8.625C37.8828 7.01562 38.8359 5.60938 40.0391 4.40625C41.2422 3.20312 42.6562 2.25781 44.2812 1.57031C45.9062 0.867188 47.6328 0.515625 49.4609 0.515625H66.7578V27ZM104.938 19.125C104.938 20.2188 104.727 21.2422 104.305 22.1953C103.898 23.1484 103.336 23.9844 102.617 24.7031C101.898 25.4062 101.055 25.9688 100.086 26.3906C99.1328 26.7969 98.1094 27 97.0156 27H80.8438V22.1484H97.0156C97.4531 22.1484 97.8594 22.0703 98.2344 21.9141C98.6094 21.7578 98.9297 21.5469 99.1953 21.2812C99.4766 21 99.6953 20.6797 99.8516 20.3203C100.008 19.9453 100.086 19.5469 100.086 19.125C100.086 18.6875 100.008 18.2812 99.8516 17.9062C99.6953 17.5312 99.4766 17.2109 99.1953 16.9453C98.9297 16.6641 98.6094 16.4453 98.2344 16.2891C97.8594 16.1328 97.4531 16.0547 97.0156 16.0547H80.8438V11.2031H93.0781C93.5469 11.1875 93.9844 11.1016 94.3906 10.9453C94.7969 10.7891 95.1484 10.5859 95.4453 10.3359C95.7578 10.0703 96 9.76562 96.1719 9.42188C96.3438 9.0625 96.4297 8.67969 96.4297 8.27344C96.4297 7.85156 96.3516 7.46875 96.1953 7.125C96.0391 6.76562 95.8203 6.45312 95.5391 6.1875C95.2734 5.92188 94.9531 5.71875 94.5781 5.57812C94.2188 5.42188 93.8281 5.34375 93.4062 5.34375H78.5703V27H73.6719V0.515625H93.4062C94.4844 0.515625 95.5 0.71875 96.4531 1.125C97.4219 1.53125 98.2578 2.08594 98.9609 2.78906C99.6797 3.47656 100.242 4.29688 100.648 5.25C101.07 6.1875 101.281 7.19531 101.281 8.27344C101.281 8.96094 101.188 9.60938 101 10.2188C100.828 10.8281 100.586 11.3984 100.273 11.9297C100.961 12.2422 101.586 12.6484 102.148 13.1484C102.727 13.6328 103.219 14.1875 103.625 14.8125C104.047 15.4375 104.367 16.1172 104.586 16.8516C104.82 17.5703 104.938 18.3281 104.938 19.125ZM141.031 13.7578C141.031 15.5859 140.742 17.3047 140.164 18.9141C139.586 20.5078 138.758 21.9062 137.68 23.1094C136.617 24.3125 135.336 25.2656 133.836 25.9688C132.352 26.6562 130.695 27 128.867 27H120.523C118.695 27 117.031 26.6562 115.531 25.9688C114.031 25.2656 112.742 24.3125 111.664 23.1094C110.602 21.9062 109.781 20.5078 109.203 18.9141C108.625 17.3047 108.336 15.5859 108.336 13.7578C108.336 11.9453 108.625 10.2422 109.203 8.64844C109.781 7.05469 110.602 5.66406 111.664 4.47656C112.742 3.27344 114.031 2.32812 115.531 1.64062C117.031 0.953125 118.695 0.609375 120.523 0.609375H128.867C130.695 0.609375 132.352 0.953125 133.836 1.64062C135.336 2.32812 136.617 3.27344 137.68 4.47656C138.758 5.66406 139.586 7.05469 140.164 8.64844C140.742 10.2422 141.031 11.9453 141.031 13.7578ZM136.227 13.7578C136.227 12.6016 136.055 11.5156 135.711 10.5C135.383 9.46875 134.898 8.57812 134.258 7.82812C133.633 7.0625 132.867 6.46094 131.961 6.02344C131.055 5.57031 130.023 5.34375 128.867 5.34375H120.523C119.367 5.34375 118.328 5.57031 117.406 6.02344C116.5 6.46094 115.727 7.0625 115.086 7.82812C114.461 8.57812 113.977 9.46875 113.633 10.5C113.305 11.5156 113.141 12.6016 113.141 13.7578C113.141 14.9141 113.305 16.0078 113.633 17.0391C113.977 18.0547 114.461 18.9453 115.086 19.7109C115.727 20.4766 116.5 21.0859 117.406 21.5391C118.328 21.9766 119.367 22.1953 120.523 22.1953H128.867C130.023 22.1953 131.055 21.9766 131.961 21.5391C132.867 21.0859 133.633 20.4766 134.258 19.7109C134.898 18.9453 135.383 18.0547 135.711 17.0391C136.055 16.0078 136.227 14.9141 136.227 13.7578ZM174.992 5.34375L152.188 22.1953H174.992V27H144.758V22.1953L167.703 5.34375H144.758V0.609375H174.992V5.34375ZM210.664 27H205.859V19.7578H187.367V14.8594H205.859V5.34375H193.367C192.195 5.34375 191.094 5.57031 190.062 6.02344C189.031 6.46094 188.133 7.0625 187.367 7.82812C186.602 8.59375 185.992 9.49219 185.539 10.5234C185.102 11.5391 184.883 12.6328 184.883 13.8047V27H180.031V13.8047C180.031 11.9609 180.383 10.2344 181.086 8.625C181.789 7.01562 182.742 5.60938 183.945 4.40625C185.148 3.20312 186.562 2.25781 188.188 1.57031C189.812 0.867188 191.539 0.515625 193.367 0.515625H210.664V27Z" fill="#FEAFBE"/>
</svg>
